<svg version="1.2" baseProfile="tiny-ps" xmlns="http://www.w3.org/2000/svg" viewBox="0 0 14 15" width="14" height="15">
	<title>Footer</title>
	<style>
		tspan { white-space:pre }
		.shp0 { fill: #ffffff } 
	</style>
	<g id="Footer">
		<g id="Social Part">
			<path id="Google" class="shp0" d="M8 1.41L6.9 1.41C7.67 1.85 8.08 2.76 8.08 3.77C8.08 4.69 7.57 5.43 6.85 5.99C6.14 6.54 6.01 6.77 6.01 7.24C6.01 7.64 6.85 8.23 7.24 8.52C8.59 9.53 8.86 10.16 8.86 11.42C8.86 13 7.16 14.56 4.39 14.56C1.96 14.56 -0.08 13.58 -0.08 12.01C-0.08 10.41 1.62 8.74 4.04 8.74C4.31 8.74 4.55 8.74 4.8 8.74C4.47 8.41 4.2 8.14 4.2 7.65C4.2 7.36 4.29 7.09 4.42 6.84C4.29 6.85 4.16 6.85 4.02 6.85C2.02 6.85 0.86 5.46 0.86 3.71C0.86 1.99 2.63 0.44 4.75 0.44L8.93 0.44L8 1.41ZM7.51 11.15C7.55 11.3 7.57 11.45 7.57 11.6C7.57 12.87 6.74 13.87 4.38 13.87C2.71 13.87 1.49 12.81 1.49 11.54C1.49 10.29 2.91 9.22 4.59 9.23C4.99 9.24 5.35 9.3 5.68 9.41C6.59 10.04 7.33 10.43 7.51 11.15ZM4.82 6.22C3.7 6.18 2.63 5.16 2.43 3.68C2.24 2.21 2.99 1.08 4.12 1.11C5.25 1.15 6.21 2.36 6.4 3.83C6.6 5.3 5.95 6.25 4.82 6.22ZM14.08 2.55L14.08 3.51L12.16 3.51L12.16 5.43L11.19 5.43L11.19 3.51L9.26 3.51L9.26 2.55L11.19 2.55L11.19 0.63L12.16 0.63L12.16 2.55L14.08 2.55Z" />
		</g>
	</g>
</svg>