<svg version="1.2" baseProfile="tiny-ps" xmlns="http://www.w3.org/2000/svg" viewBox="0 0 14 12" width="14" height="12">
	<title>Footer</title>
	<style>
		tspan { white-space:pre }
		.shp0 { fill: #ffffff } 
	</style>
	<g id="Footer">
		<g id="Social Part">
			<path id="Tweter" class="shp0" d="M0.53 10.2C1.89 10.2 3.14 9.74 4.14 8.96C2.87 8.94 1.79 8.1 1.42 6.95C1.6 6.98 1.78 7 1.97 7C2.23 7 2.49 6.97 2.74 6.9C1.41 6.63 0.4 5.46 0.4 4.06L0.4 4.02C0.79 4.24 1.24 4.37 1.72 4.38C0.94 3.86 0.43 2.98 0.43 1.97C0.43 1.44 0.57 0.94 0.82 0.52C2.25 2.27 4.4 3.42 6.82 3.54C6.77 3.33 6.74 3.11 6.74 2.88C6.74 1.28 8.04 -0.01 9.65 -0.01C10.49 -0.01 11.24 0.34 11.77 0.9C12.43 0.77 13.06 0.53 13.62 0.2C13.4 0.87 12.94 1.44 12.34 1.8C12.93 1.73 13.49 1.58 14.01 1.34C13.62 1.93 13.13 2.44 12.56 2.84C12.57 2.97 12.57 3.09 12.57 3.22C12.57 7.05 9.64 11.46 4.29 11.46C2.65 11.46 1.12 10.99 -0.17 10.16C0.06 10.19 0.29 10.2 0.53 10.2Z" />
		</g>
	</g>
</svg>